<svg width="100" height="100" viewBox="0 0 100 100" fill="none" xmlns="http://www.w3.org/2000/svg">
<g clip-path="url(#clip0_1_128)">
<rect width="100" height="100" fill="black"/>
<path d="M28.59 73.26C26.0233 73.26 23.41 72.9333 20.75 72.28C18.09 71.6733 15.8733 70.8567 14.1 69.83L14.45 60.31H15.15L17.32 64.86C17.9733 66.1667 18.6733 67.3333 19.42 68.36C20.1667 69.34 21.1933 70.11 22.5 70.67C23.4333 71.1367 24.32 71.4633 25.16 71.65C26.0467 71.79 27.0267 71.86 28.1 71.86C30.9467 71.86 33.1867 71.09 34.82 69.55C36.5 68.01 37.34 66.0267 37.34 63.6C37.34 61.3133 36.78 59.54 35.66 58.28C34.54 56.9733 32.7433 55.7133 30.27 54.5L27.4 53.24C23.3867 51.4667 20.2367 49.4367 17.95 47.15C15.71 44.8167 14.59 41.7367 14.59 37.91C14.59 35.1567 15.29 32.7767 16.69 30.77C18.1367 28.7633 20.12 27.2233 22.64 26.15C25.2067 25.0767 28.1933 24.54 31.6 24.54C34.0733 24.54 36.4067 24.8667 38.6 25.52C40.84 26.1733 42.7767 27.06 44.41 28.18L43.99 36.58H43.29L40.42 31.33C39.6267 29.6967 38.8333 28.5533 38.04 27.9C37.2467 27.2 36.3367 26.71 35.31 26.43C34.7033 26.2433 34.1433 26.1267 33.63 26.08C33.1167 25.9867 32.4633 25.94 31.67 25.94C29.29 25.94 27.2833 26.64 25.65 28.04C24.0167 29.3933 23.2 31.2367 23.2 33.57C23.2 35.95 23.83 37.8633 25.09 39.31C26.35 40.71 28.1933 41.97 30.62 43.09L33.84 44.49C38.32 46.45 41.54 48.55 43.5 50.79C45.46 52.9833 46.44 55.83 46.44 59.33C46.44 63.4367 44.8767 66.7967 41.75 69.41C38.67 71.9767 34.2833 73.26 28.59 73.26ZM49.7705 72V71.3L51.2405 70.81C52.1738 70.4833 52.7805 70.0633 53.0605 69.55C53.3405 68.99 53.4805 68.22 53.4805 67.24V30.63C53.4805 29.6967 53.3405 28.9733 53.0605 28.46C52.8271 27.9 52.2671 27.4567 51.3805 27.13L49.7705 26.5V25.8H69.7905C75.2971 25.8 79.5205 26.85 82.4605 28.95C85.4005 31.0033 86.8705 33.8733 86.8705 37.56C86.8705 39.6133 86.1005 41.6667 84.5605 43.72C83.0205 45.7733 80.5938 47.36 77.2805 48.48L87.0105 67.8C87.4305 68.5933 87.8971 69.2467 88.4105 69.76C88.9705 70.2267 89.6938 70.6467 90.5805 71.02L91.4905 71.37V72H78.9605L68.6005 49.95H63.8405V67.24C63.8405 68.1267 63.9805 68.85 64.2605 69.41C64.5405 69.97 65.1238 70.39 66.0105 70.67L67.6905 71.3V72H49.7705ZM63.8405 48.55H67.2005C70.5605 48.55 72.9871 47.6633 74.4805 45.89C75.9738 44.07 76.7205 41.3867 76.7205 37.84C76.7205 34.2467 76.0205 31.5867 74.6205 29.86C73.2205 28.0867 70.8638 27.2 67.5505 27.2H63.8405V48.55Z" fill="white"/>
</g>
<defs>
<clipPath id="clip0_1_128">
<rect width="100" height="100" fill="white"/>
</clipPath>
</defs>
</svg>
